<svg width="163" height="96" viewBox="0 0 163 96" fill="none" xmlns="http://www.w3.org/2000/svg">
<path d="M8.49886 0.519592C7.93781 0.914405 7.54299 1.47548 6.98195 2.68069L6.23388 4.30151L5.4027 4.1976C4.30138 4.05214 3.47019 4.42618 2.51433 5.5275C1.16366 7.04441 1.05976 8.06262 1.89094 10.9302C2.1403 11.7822 2.1403 11.8237 1.57925 12.2601C0.914302 12.7796 0 14.151 0 14.629C0 15.5433 1.14288 17.0602 3.40785 19.2005C4.73775 20.4265 5.81829 21.5901 5.81829 21.7771C5.81829 22.5044 6.46246 24.2291 7.04428 25.1434C7.39754 25.6422 8.60275 27.0759 9.76641 28.3227C12.5717 31.3358 12.7171 31.6267 12.8834 35.0138L13.008 37.7151L14.0678 40.0009L15.1276 42.2658L15.273 46.11C15.7302 59.9908 18.0367 72.604 22.3173 84.5523C24.7693 91.4927 26.6187 95.5032 31.9382 105.581C37.4241 115.992 39.5644 119.67 41.3098 121.582L42.0579 122.413L41.7878 123.888C40.2085 132.719 40.0007 134.818 40.0007 142.32C40.0007 147.785 40.0839 149.094 40.4787 151.774C41.2891 157.281 42.4527 161.333 44.5099 165.904C45.7567 168.689 48.3126 173.489 49.5386 175.338L50.4529 176.71L50.1412 178.892C49.8918 180.637 49.871 182.133 49.9957 186.372C50.3282 196.347 50.2659 197.386 49.2892 201.438C45.1333 218.518 42.4112 237.719 42.3904 249.958C42.3904 251.62 42.3073 253.075 42.2242 253.2C42.141 253.324 41.6008 253.594 40.9982 253.781C38.6916 254.55 36.1565 256.628 35.1591 258.581C34.5149 259.87 34.4318 261.74 34.9928 262.821C35.5539 263.901 36.8838 265.231 37.8189 265.647C38.6501 266.021 38.6916 266.021 39.9592 265.563C41.0605 265.189 41.3722 265.148 41.9332 265.356C42.3696 265.501 43.0969 265.543 43.9073 265.439C44.6138 265.376 45.5281 265.314 45.9229 265.335C49.8295 265.439 49.9542 265.439 50.9931 264.919C52.6971 264.088 54.7335 261.989 55.6478 260.161L56.4166 258.602L56.3543 253.968C56.3127 250.54 56.3958 248.815 56.6244 247.298C56.9777 245.137 58.5361 238.114 58.7024 237.927C58.7647 237.885 59.0764 238.072 59.3881 238.384C60.1777 239.132 61.7154 239.859 63.8349 240.482C66.0376 241.106 66.1207 241.147 65.9752 241.667C65.8713 241.979 65.9752 242.124 66.5155 242.311C66.8895 242.436 68.2194 243.038 69.4454 243.662C71.274 244.555 71.6896 244.825 71.6065 245.137C71.5234 245.386 71.7104 245.615 72.2715 245.948C72.687 246.176 73.7884 247.007 74.7027 247.776C75.617 248.545 76.5936 249.335 76.8845 249.542C77.1754 249.75 77.3209 250 77.2378 250.083C77.1547 250.187 75.804 250.311 74.2455 250.394L71.3987 250.54L69.4662 251.516C66.4532 253.033 64.957 255.007 64.957 257.439C64.9363 258.789 65.3934 259.683 66.5363 260.618C67.5129 261.408 69.2792 261.574 71.3364 261.096C72.3338 260.867 73.7676 260.763 76.1572 260.763H79.5443L79.7937 261.511C80.0846 262.405 81.082 263.569 81.8924 264.005C82.2872 264.192 83.1392 264.296 84.5106 264.296C86.0276 264.296 86.6717 264.379 87.025 264.628C88.1886 265.439 91.9705 265.75 95.4823 265.314C96.3966 265.189 106.682 265.023 118.34 264.94C132.802 264.815 140.034 264.691 141.093 264.524C146.184 263.735 147.868 263.423 148.47 263.174C150.216 262.447 152.107 259.517 154.205 254.301C155.016 252.306 155.826 250.561 156.013 250.436C156.2 250.29 156.678 250.166 157.094 250.166C158.07 250.166 158.403 249.875 158.86 248.607C159.068 248.025 159.961 245.968 160.855 244.015C161.769 242.062 162.6 239.963 162.746 239.34C163.307 236.888 162.954 233.646 161.541 227.869C160.751 224.669 160.689 223.63 161.167 222.3C161.354 221.802 161.499 220.721 161.52 219.931C161.52 218.331 160.647 215.027 158.32 207.858C156.928 203.578 156.761 203.287 151.109 195.765C143.296 185.354 140.138 180.305 139.203 176.627C138.766 174.881 138.517 174.486 134.86 169.333C131.992 165.302 129.332 162.164 125.613 158.424C121.457 154.226 115.327 148.595 114.246 147.972C112.999 147.244 110.776 145.104 108.303 142.216C107.223 140.948 105.581 139.182 104.646 138.268C103.295 136.938 102.88 136.356 102.506 135.358C101.758 133.384 101.321 132.803 100.386 132.553C99.2849 132.262 98.3706 131.473 97.7472 130.247C96.6667 128.086 96.355 125.176 96.9576 122.891C97.4148 121.124 99.2849 116.678 102.236 110.423C107.659 98.8902 109.363 94.6512 109.945 91.0979C110.277 89.0823 110.236 83.5757 109.841 78.734C109.218 71.0664 109.218 71.8144 109.903 69.1754C110.631 66.3078 111.046 62.9 110.859 61.1753C110.693 59.4506 110.173 57.996 109.675 57.7259C108.906 57.3103 107.389 57.622 106.038 58.4324C104.438 59.409 101.591 61.9026 100.262 63.5234C99.7005 64.2299 99.1187 64.7909 98.994 64.7909C98.8693 64.8117 98.2044 64.2507 97.4979 63.5857C96.4174 62.5675 96.2096 62.235 96.2096 61.6532C96.2096 61.2792 95.9602 59.9285 95.6693 58.6817C94.7965 54.8998 94.381 52.5517 94.2355 50.5361C94.1524 49.4764 93.9654 48.4582 93.8199 48.2711C93.1965 47.3984 92.1991 48.7699 91.8458 50.9725C91.7212 51.7829 91.4302 53.466 91.1809 54.7336C90.9523 55.9804 90.703 57.9337 90.6198 59.0558C90.5367 60.1571 90.3913 61.1337 90.3081 61.2168C90.2458 61.2999 88.0432 61.1961 85.4249 60.9883C80.521 60.5935 78.6716 60.635 76.4689 61.2168C75.0767 61.5701 74.0585 62.1519 71.4403 64.1052C68.6558 66.1832 68.0116 66.3702 63.9804 66.287C59.2842 66.2039 58.7855 66.4949 58.3907 69.6949C58.1829 71.3365 57.9751 71.8975 57.3309 72.604C56.1049 73.9547 55.6893 76.6976 56.3958 78.5678C56.7283 79.399 56.7491 79.7107 56.5413 80.4795C56.4166 80.999 56.3127 81.7886 56.3127 82.2458C56.3127 82.7237 56.2712 83.0977 56.2088 83.0977C56.1465 83.0977 55.5231 82.8068 54.8166 82.4536C54.1309 82.1003 51.949 81.1445 49.9957 80.3133C45.7982 78.547 43.8865 77.5288 42.7852 76.4275C40.9358 74.5781 38.2968 67.6793 36.4682 59.9285C33.185 46.0062 32.624 44.136 29.6109 37.6943C27.0966 32.2916 26.2446 29.9851 25.9329 27.7201C25.6836 25.8707 25.2888 24.998 23.6056 22.5876C22.1718 20.5719 22.0264 19.8654 22.0264 14.9614C22.0264 11.2211 22.0056 11.0341 21.5069 10.0159C20.6757 8.3743 19.2627 7.45998 17.4549 7.39764C16.6029 7.35608 16.5198 7.31455 16.3328 6.67038C16.0834 5.75608 14.6912 4.21839 13.3613 3.36642C12.7587 2.99239 12.1353 2.41054 11.9483 2.07806C11.5742 1.33 10.0158 -0.0206575 9.5794 0.00012207C9.39238 0.00012207 8.91445 0.228678 8.49886 0.519592Z" fill="#063643"/>
</svg>
