<svg width="64" height="64" viewBox="0 0 64 64" fill="none" xmlns="http://www.w3.org/2000/svg">
<circle cx="32" cy="31.6587" r="31.6216" transform="rotate(90 32 31.6587)" fill="#7CCBE0"/>
<circle cx="32" cy="31.6587" r="30.7432" transform="rotate(90 32 31.6587)" stroke="black" stroke-opacity="0.1" stroke-width="1.75676"/>
<path d="M41.9012 22.8746H41.9215M26.7297 49.226H37.2702C46.054 49.226 49.5675 45.7124 49.5675 36.9287V26.3881C49.5675 17.6043 46.054 14.0908 37.2702 14.0908H26.7297C17.9459 14.0908 14.4324 17.6043 14.4324 26.3881V36.9287C14.4324 45.7124 17.9459 49.226 26.7297 49.226ZM38.1486 31.6584C38.1486 35.0542 35.3957 37.807 31.9999 37.807C28.6041 37.807 25.8513 35.0542 25.8513 31.6584C25.8513 28.2626 28.6041 25.5097 31.9999 25.5097C35.3957 25.5097 38.1486 28.2626 38.1486 31.6584Z" stroke="#063643" stroke-width="2.63513" stroke-linecap="round" stroke-linejoin="round"/>
</svg>
