<svg width="100" height="44" viewBox="0 0 100 44" fill="none" xmlns="http://www.w3.org/2000/svg">
<path fill-rule="evenodd" clip-rule="evenodd" d="M45.5547 0.828665C48.2041 -0.276222 51.1725 -0.276222 53.8219 0.828665C53.8653 0.668228 53.9521 0.526123 54.0747 0.405127C54.2661 0.220962 54.4957 0.131553 54.7586 0.147371C59.0876 0.386692 62.9825 2.92782 65.0448 6.85521C66.293 9.23061 66.5967 12.0636 66.2343 14.7126C65.979 16.5566 65.392 18.3901 64.4859 20.0026C64.3506 20.242 64.1285 20.3972 63.8835 20.4524C63.6053 20.5471 63.2888 20.505 63.0387 20.3104C62.2219 19.6738 61.4511 18.9872 60.7313 18.2586C60.7696 20.2762 60.5654 22.2991 60.1263 24.2694C60.1212 24.2877 60.1162 24.3062 60.1136 24.322C59.4423 26.7657 57.3698 28.494 54.9501 28.7097C51.6422 30.4301 47.7344 30.4301 44.4265 28.7097C42.0069 28.4966 39.9368 26.7657 39.2656 24.322C39.2604 24.3062 39.2553 24.2877 39.2503 24.2694C38.8112 22.2991 38.607 20.2762 38.6479 18.2586C37.9255 18.9872 37.1573 19.6738 36.3379 20.3104C36.0878 20.505 35.7713 20.5471 35.4931 20.4524C35.248 20.3972 35.026 20.242 34.8908 20.0026C33.9846 18.3901 33.3976 16.5566 33.1423 14.7126C32.7799 12.0636 33.0862 9.23061 34.3318 6.85521C36.3941 2.92782 40.2916 0.386692 44.618 0.147371C44.8808 0.131553 45.1106 0.220962 45.302 0.405127C45.4271 0.526123 45.5113 0.668228 45.5547 0.828665ZM55.6596 2.2781C55.6596 2.2912 55.6622 2.30434 55.6622 2.31754C55.9711 8.45979 58.7583 14.1997 63.35 18.1376C64.7845 14.9678 65.0347 10.8326 63.4215 7.76011C61.8237 4.71924 58.9344 2.65424 55.6545 2.14915C55.6545 2.19393 55.6571 2.23599 55.6596 2.2781ZM53.85 2.92781C51.2364 1.55731 48.1403 1.55731 45.5267 2.93049C45.1871 7.697 43.4744 12.2163 40.6566 15.9332C40.3376 18.5611 40.4703 21.239 41.0446 23.8196C41.5014 25.4584 42.8747 26.621 44.4878 26.8052C44.6154 26.7841 44.7481 26.7921 44.8783 26.8289C44.8936 26.8289 44.9089 26.8289 44.9243 26.8289C46.4685 26.8342 47.8876 25.945 48.5818 24.5193C48.6278 24.4245 48.6865 24.3404 48.758 24.2694C48.7478 23.6906 48.7427 23.1119 48.7478 22.5358C48.6406 22.599 48.541 22.6726 48.4491 22.7594C48.0663 23.104 47.4817 23.0672 47.1449 22.6753C46.8104 22.2807 46.8462 21.6783 47.2265 21.3311C47.9029 20.7155 48.7682 20.3735 49.6692 20.3577C49.6794 20.3577 49.6896 20.3577 49.6973 20.3577C49.7024 20.3577 49.7049 20.3577 49.7074 20.3577C50.6085 20.3735 51.4737 20.7155 52.1501 21.3311C52.5304 21.6783 52.5687 22.2807 52.2318 22.6753C51.8948 23.0672 51.3104 23.104 50.9275 22.7594C50.8254 22.6647 50.7131 22.5806 50.5931 22.5121C50.5906 23.0935 50.5931 23.6749 50.6033 24.2536C50.6799 24.3299 50.7463 24.4167 50.7973 24.5193C51.489 25.945 52.9082 26.8342 54.4524 26.8289C54.4677 26.8289 54.483 26.8289 54.5009 26.8289C54.6285 26.7921 54.7612 26.7841 54.8889 26.8052C56.502 26.621 57.8752 25.4584 58.332 23.8196C58.9063 21.239 59.039 18.5611 58.72 15.9332C55.9021 12.2163 54.1895 7.697 53.85 2.92781ZM47.885 27.9258C49.077 28.1546 50.2996 28.1546 51.4916 27.9258C50.7948 27.5128 50.1771 26.9551 49.6896 26.2791C49.1995 26.9551 48.5818 27.5128 47.885 27.9258ZM43.7246 2.14915C40.4422 2.65424 37.5529 4.71924 35.9551 7.76011C34.342 10.8326 34.5921 14.9678 36.0266 18.1376C40.6617 14.1628 43.4566 8.35724 43.7246 2.14915ZM50.9326 14.4653C51.6371 13.5999 52.658 13.0764 53.7505 13.0159C54.8403 12.9554 55.9175 13.3658 56.7062 14.1418C57.0711 14.5048 57.0864 15.1098 56.7342 15.4886C56.382 15.8674 55.7975 15.8806 55.43 15.5176C55.0088 15.102 54.432 14.8836 53.85 14.9152C53.2655 14.9467 52.7219 15.2282 52.3441 15.6885C52.0174 16.091 51.4329 16.1436 51.0424 15.8043C50.6544 15.4676 50.6033 14.8652 50.9326 14.4653ZM42.6041 14.4653C43.3086 13.5999 44.3295 13.0764 45.422 13.0159C46.5118 12.9554 47.589 13.3658 48.3776 14.1418C48.7452 14.5048 48.758 15.1098 48.4057 15.4886C48.0535 15.8674 47.469 15.8806 47.1015 15.5176C46.6803 15.102 46.1035 14.8836 45.5215 14.9152C44.9396 14.9467 44.3933 15.2282 44.0156 15.6885C43.6889 16.091 43.1044 16.1436 42.7164 15.8043C42.3259 15.4676 42.2774 14.8652 42.6041 14.4653Z" fill="#0F637A"/>
<path d="M5.96679 38.6259C5.96679 39.0783 5.8627 39.4937 5.65451 39.872C5.44633 40.2429 5.12661 40.5433 4.69537 40.7733C4.26412 41.0032 3.72878 41.1182 3.08935 41.1182H1.90714L1.90714 43.9221H0L0 36.1113H3.08935C3.71391 36.1113 4.24181 36.2188 4.67306 36.4339C5.1043 36.649 5.42774 36.9458 5.64336 37.3241C5.85898 37.7024 5.96679 38.1363 5.96679 38.6259ZM2.94436 39.605C3.30869 39.605 3.58008 39.5197 3.75852 39.3491C3.93697 39.1785 4.02619 38.9374 4.02619 38.6259C4.02619 38.3143 3.93697 38.0732 3.75852 37.9026C3.58008 37.732 3.30869 37.6467 2.94436 37.6467H1.90714L1.90714 39.605H2.94436Z" fill="black"/>
<path d="M9.08986 36.1113L9.08986 43.9221H7.18272L7.18272 36.1113H9.08986Z" fill="black"/>
<path d="M17.699 43.9221H15.7919L12.6022 39.1043L12.6022 43.9221H10.695L10.695 36.1113H12.6022L15.7919 40.9513V36.1113H17.699V43.9221Z" fill="black"/>
<path d="M22.2377 36.1113C23.063 36.1113 23.7843 36.2745 24.4014 36.6008C25.0185 36.9272 25.4944 37.3871 25.829 37.9805C26.171 38.5665 26.342 39.2452 26.342 40.0167C26.342 40.7807 26.171 41.4594 25.829 42.0529C25.4944 42.6463 25.0148 43.1062 24.3902 43.4325C23.7731 43.7589 23.0556 43.9221 22.2377 43.9221H19.3045V36.1113H22.2377ZM22.115 42.2754C22.8363 42.2754 23.3976 42.0788 23.7991 41.6857C24.2006 41.2925 24.4014 40.7362 24.4014 40.0167C24.4014 39.2972 24.2006 38.7371 23.7991 38.3366C23.3976 37.936 22.8363 37.7357 22.115 37.7357H21.2117V42.2754H22.115Z" fill="black"/>
<path d="M31.3336 44C30.5975 44 29.9209 43.8294 29.3038 43.4882C28.6941 43.147 28.2071 42.6722 27.8427 42.064C27.4859 41.4483 27.3074 40.7585 27.3074 39.9944C27.3074 39.2304 27.4859 38.5443 27.8427 37.936C28.2071 37.3278 28.6941 36.853 29.3038 36.5118C29.9209 36.1706 30.5975 36 31.3336 36C32.0697 36 32.7426 36.1706 33.3523 36.5118C33.9694 36.853 34.4527 37.3278 34.8022 37.936C35.159 38.5443 35.3375 39.2304 35.3375 39.9944C35.3375 40.7585 35.159 41.4483 34.8022 42.064C34.4453 42.6722 33.962 43.147 33.3523 43.4882C32.7426 43.8294 32.0697 44 31.3336 44ZM31.3336 42.2643C31.9582 42.2643 32.4563 42.0566 32.8281 41.6412C33.2073 41.2258 33.3969 40.6769 33.3969 39.9944C33.3969 39.3046 33.2073 38.7557 32.8281 38.3477C32.4563 37.9323 31.9582 37.7246 31.3336 37.7246C30.7016 37.7246 30.196 37.9286 29.8168 38.3366C29.445 38.7446 29.2592 39.2972 29.2592 39.9944C29.2592 40.6843 29.445 41.2369 29.8168 41.6523C30.196 42.0603 30.7016 42.2643 31.3336 42.2643Z" fill="black"/>
<path d="M40.6143 43.9221L38.986 40.9736H38.5287V43.9221H36.6215V36.1113H39.8224C40.4396 36.1113 40.9637 36.2188 41.395 36.4339C41.8337 36.649 42.1608 36.9458 42.3764 37.3241C42.5921 37.6949 42.6999 38.1103 42.6999 38.5702C42.6999 39.0895 42.5512 39.5531 42.2538 39.9611C41.9638 40.369 41.5325 40.6583 40.96 40.8289L42.7668 43.9221H40.6143ZM38.5287 39.6273H39.7109C40.0604 39.6273 40.3206 39.542 40.4916 39.3713C40.6701 39.2007 40.7593 38.9597 40.7593 38.6481C40.7593 38.3514 40.6701 38.1178 40.4916 37.9471C40.3206 37.7765 40.0604 37.6912 39.7109 37.6912H38.5287V39.6273Z" fill="black"/>
<path d="M48.9939 42.5424H46.0719L45.6035 43.9221H43.6071L46.4399 36.1113H48.6482L51.481 43.9221H49.4624L48.9939 42.5424ZM48.5032 41.0737L47.5329 38.2142L46.5738 41.0737H48.5032Z" fill="black"/>
<path d="M61.4328 36.1113V43.9221H59.5257V39.2378L57.7747 43.9221H56.2356L54.4734 39.2267V43.9221H52.5663V36.1113H54.8191L57.0163 41.5188L59.1911 36.1113H61.4328Z" fill="black"/>
<path d="M67.9011 42.5424H64.9791L64.5106 43.9221H62.5143L65.3471 36.1113H67.5554L70.3882 43.9221H68.3696L67.9011 42.5424ZM67.4104 41.0737L66.4401 38.2142L65.4809 41.0737H67.4104Z" fill="black"/>
<path d="M80.0267 38.6259C80.0267 39.0783 79.9227 39.4937 79.7145 39.872C79.5063 40.2429 79.1866 40.5433 78.7553 40.7733C78.3241 41.0032 77.7887 41.1182 77.1493 41.1182H75.9671V43.9221H74.06V36.1113H77.1493C77.7739 36.1113 78.3018 36.2188 78.733 36.4339C79.1643 36.649 79.4877 36.9458 79.7033 37.3241C79.9189 37.7024 80.0267 38.1363 80.0267 38.6259ZM77.0043 39.605C77.3687 39.605 77.64 39.5197 77.8185 39.3491C77.9969 39.1785 78.0861 38.9374 78.0861 38.6259C78.0861 38.3143 77.9969 38.0732 77.8185 37.9026C77.64 37.732 77.3687 37.6467 77.0043 37.6467H75.9671V39.605H77.0043Z" fill="black"/>
<path d="M83.1498 37.6356V39.2156L85.7038 39.2156V40.6843L83.1498 40.6843V42.3978L86.0384 42.3978V43.9221L81.2427 43.9221V36.1113H86.0384V37.6356H83.1498Z" fill="black"/>
<path d="M93.1318 36.1113V37.6356H91.0574V43.9221H89.1502V37.6356H87.0758V36.1113H93.1318Z" fill="black"/>
<path d="M97.1449 44C96.5723 44 96.0593 43.9073 95.6058 43.7218C95.1522 43.5364 94.7879 43.2619 94.5128 42.8985C94.2451 42.535 94.1038 42.0974 94.089 41.5855H96.1188C96.1485 41.8748 96.2489 42.0974 96.4199 42.2531C96.5909 42.4015 96.814 42.4757 97.0891 42.4757C97.3716 42.4757 97.5947 42.4126 97.7583 42.2865C97.9218 42.153 98.0036 41.9713 98.0036 41.7413C98.0036 41.5484 97.9367 41.389 97.8029 41.2629C97.6765 41.1368 97.5166 41.0329 97.3233 40.9513C97.1374 40.8697 96.8698 40.777 96.5203 40.6732C96.0147 40.5174 95.6021 40.3616 95.2823 40.2058C94.9626 40.0501 94.6875 39.8201 94.457 39.516C94.2265 39.2119 94.1113 38.815 94.1113 38.3255C94.1113 37.5985 94.3752 37.0311 94.9031 36.6231C95.431 36.2077 96.1188 36 96.9664 36C97.8289 36 98.5241 36.2077 99.052 36.6231C99.5799 37.0311 99.8624 37.6022 99.8996 38.3366H97.8363C97.8215 38.0844 97.7285 37.8878 97.5575 37.7469C97.3865 37.5985 97.1672 37.5243 96.8995 37.5243C96.669 37.5243 96.4831 37.5874 96.3419 37.7135C96.2006 37.8322 96.1299 38.0065 96.1299 38.2364C96.1299 38.4886 96.2489 38.6852 96.4868 38.8261C96.7248 38.9671 97.0965 39.1191 97.6021 39.2823C98.1077 39.4529 98.5167 39.6161 98.8289 39.7719C99.1487 39.9277 99.4238 40.1539 99.6543 40.4506C99.8848 40.7473 100 41.1293 100 41.5967C100 42.0417 99.8848 42.446 99.6543 42.8095C99.4312 43.1729 99.104 43.4622 98.6728 43.6773C98.2416 43.8924 97.7322 44 97.1449 44Z" fill="black"/>
</svg>
