<svg width="200" height="200" viewBox="0 0 200 200" fill="none" xmlns="http://www.w3.org/2000/svg">
<path fill-rule="evenodd" clip-rule="evenodd" d="M91.8791 60.761C97.0838 58.6516 102.915 58.6516 108.12 60.761C108.205 60.4547 108.376 60.1834 108.617 59.9524C108.993 59.6008 109.444 59.4301 109.96 59.4603C118.465 59.9172 126.116 64.7686 130.168 72.2666C132.62 76.8016 133.216 82.2103 132.505 87.2676C132.003 90.7881 130.85 94.2885 129.07 97.367C128.804 97.824 128.368 98.1203 127.886 98.2258C127.34 98.4066 126.718 98.3262 126.227 97.9546C124.622 96.7392 123.108 95.4285 121.694 94.0374C121.769 97.8894 121.368 101.751 120.505 105.513C120.495 105.548 120.485 105.583 120.48 105.613C119.162 110.279 115.09 113.578 110.337 113.99C103.838 117.275 96.1612 117.275 89.6627 113.99C84.9093 113.583 80.8427 110.279 79.524 105.613C79.5139 105.583 79.5039 105.548 79.4939 105.513C78.6314 101.751 78.2303 97.8894 78.3105 94.0374C76.8915 95.4285 75.3822 96.7392 73.7726 97.9546C73.2812 98.3262 72.6595 98.4066 72.113 98.2258C71.6315 98.1203 71.1953 97.824 70.9296 97.367C69.1495 94.2885 67.9962 90.7881 67.4948 87.2676C66.7828 82.2103 67.3845 76.8016 69.8315 72.2666C73.883 64.7686 81.5397 59.9172 90.0389 59.4603C90.5553 59.4301 91.0066 59.6008 91.3827 59.9524C91.6284 60.1834 91.7939 60.4547 91.8791 60.761ZM111.73 63.5282C111.73 63.5532 111.736 63.5783 111.736 63.6035C112.342 75.33 117.818 86.2883 126.838 93.8064C129.656 87.7548 130.148 79.86 126.979 73.9942C123.84 68.1887 118.164 64.2463 111.72 63.282C111.72 63.3675 111.725 63.4478 111.73 63.5282ZM108.175 64.7686C103.041 62.1521 96.9585 62.1521 91.824 64.7737C91.157 73.8737 87.7924 82.5017 82.2567 89.5978C81.63 94.6149 81.8907 99.7274 83.0189 104.654C83.9164 107.783 86.6141 110.003 89.7831 110.354C90.0338 110.314 90.2945 110.329 90.5503 110.399C90.5804 110.399 90.6105 110.399 90.6406 110.399C93.6742 110.41 96.4621 108.712 97.8259 105.99C97.9162 105.809 98.0315 105.649 98.172 105.513C98.1519 104.408 98.1419 103.303 98.1519 102.203C97.9413 102.324 97.7458 102.465 97.5652 102.63C96.8131 103.288 95.6648 103.218 95.003 102.47C94.346 101.716 94.4163 100.566 95.1634 99.9033C96.4922 98.728 98.192 98.0751 99.962 98.045C99.9821 98.045 100.002 98.045 100.017 98.045C100.027 98.045 100.032 98.045 100.037 98.045C101.807 98.0751 103.507 98.728 104.836 99.9033C105.583 100.566 105.658 101.716 104.996 102.47C104.334 103.218 103.186 103.288 102.434 102.63C102.234 102.449 102.013 102.289 101.777 102.158C101.772 103.268 101.777 104.378 101.797 105.483C101.948 105.628 102.078 105.794 102.178 105.99C103.537 108.712 106.325 110.41 109.359 110.399C109.389 110.399 109.419 110.399 109.454 110.399C109.705 110.329 109.965 110.314 110.216 110.354C113.385 110.003 116.083 107.783 116.98 104.654C118.109 99.7274 118.369 94.6149 117.743 89.5978C112.207 82.5017 108.842 73.8737 108.175 64.7686ZM96.4571 112.494C98.7987 112.931 101.201 112.931 103.542 112.494C102.173 111.705 100.96 110.64 100.002 109.35C99.0394 110.64 97.8259 111.705 96.4571 112.494ZM88.2839 63.282C81.8356 64.2463 76.1594 68.1887 73.0205 73.9942C69.8515 79.86 70.3429 87.7548 73.1609 93.8064C82.2667 86.2179 87.7574 75.1342 88.2839 63.282ZM102.444 86.7955C103.828 85.1432 105.834 84.1439 107.98 84.0283C110.121 83.9128 112.237 84.6963 113.786 86.1778C114.503 86.8708 114.533 88.0259 113.841 88.7491C113.15 89.4723 112.001 89.4974 111.279 88.8044C110.452 88.0109 109.319 87.594 108.175 87.6543C107.027 87.7145 105.959 88.2519 105.217 89.1308C104.575 89.8992 103.427 89.9996 102.66 89.3518C101.898 88.7089 101.797 87.5589 102.444 86.7955ZM86.0826 86.7955C87.4665 85.1432 89.4722 84.1439 91.6184 84.0283C93.7594 83.9128 95.8755 84.6963 97.4248 86.1778C98.1468 86.8708 98.172 88.0259 97.48 88.7491C96.7881 89.4723 95.6398 89.4974 94.9178 88.8044C94.0904 88.0109 92.9572 87.594 91.8139 87.6543C90.6707 87.7145 89.5976 88.2519 88.8555 89.1308C88.2137 89.8992 87.0654 89.9996 86.3032 89.3518C85.536 88.7089 85.4408 87.5589 86.0826 86.7955Z" fill="#0F637A"/>
<path d="M65.1986 57.4795L66.3132 58.716L64.4457 60.399L66.7308 62.934L69.0798 60.8166L70.1943 62.0531L66.4849 65.3963L58.6829 56.7399L62.3934 53.3967L63.508 54.6331L61.1579 56.7505L63.3312 59.162L65.1986 57.4795Z" fill="#222222"/>
<path d="M69.3428 48.3613C70.8648 47.4357 72.2009 47.8701 73.1691 49.4632L73.3601 49.7761L71.8808 50.6758L71.6299 50.2633C71.1971 49.5521 70.748 49.455 70.2501 49.7578C69.7523 50.0606 69.6324 50.5041 70.0652 51.2153C71.3108 53.2636 74.6027 51.7873 76.333 54.6321C77.3023 56.2252 77.0594 57.6202 75.5232 58.5545C73.987 59.4892 72.6367 59.063 71.6675 57.4699L71.2956 56.8582L72.7749 55.9585L73.2077 56.6697C73.6406 57.381 74.1089 57.4465 74.6068 57.1437C75.1046 56.8409 75.2621 56.3944 74.8293 55.6832C73.5826 53.6349 70.2918 55.1112 68.5605 52.2663C67.5922 50.6732 67.8208 49.2869 69.3428 48.3613Z" fill="#222222"/>
<path d="M81.9526 42.6554L82.5398 44.2124L80.7486 44.8881L84.2731 54.2323L82.5601 54.8785L79.0356 45.5342L77.2454 46.2099L76.6571 44.6523L81.9526 42.6554Z" fill="#222222"/>
<path d="M90.3947 40.6509C92.2002 40.3415 93.2589 41.1909 93.5728 43.0299L94.5675 48.8405C94.8824 50.6789 94.1672 51.8321 92.3617 52.141L89.5057 52.6302L87.5387 41.1396L90.3947 40.6509ZM91.0307 50.6794L92.0478 50.5052C92.6228 50.4071 92.9165 50.0526 92.7762 49.2316L91.7531 43.2564C91.6129 42.436 91.2177 42.1993 90.6426 42.2978L89.6256 42.4721L91.0307 50.6794Z" fill="#222222"/>
<path d="M108.651 41.9482C108.074 41.8659 107.667 42.127 107.55 42.951L107.373 44.187L105.659 43.9427L105.82 42.822C106.083 40.9764 107.156 40.0534 108.936 40.3074C110.715 40.5609 111.487 41.7471 111.224 43.5926C110.708 47.2178 106.906 48.055 106.636 49.9498C106.624 50.0321 106.612 50.1144 106.617 50.1993L110.044 50.688L109.81 52.3359L104.569 51.5887L104.771 50.1713C105.256 46.7768 108.928 46.7291 109.402 43.4001C109.551 42.3623 109.227 42.03 108.651 41.9482Z" fill="#222222"/>
<path d="M120.124 43.0379C121.822 43.6328 122.397 44.9638 121.779 46.724L119.775 52.4447C119.157 54.2049 117.878 54.8861 116.18 54.2913C114.483 53.6959 113.908 52.3654 114.525 50.6052L116.531 44.884C117.147 43.1238 118.427 42.443 120.124 43.0379ZM116.731 52.7195C117.281 52.912 117.732 52.7347 118.007 51.9488L120.09 46.0082C120.365 45.2223 120.123 44.8027 119.574 44.6097C119.024 44.4171 118.573 44.5944 118.297 45.3803L116.216 51.3209C115.94 52.1068 116.181 52.5264 116.731 52.7195Z" fill="#222222"/>
<path d="M129.884 49.4149C129.382 49.1187 128.906 49.2051 128.483 49.9219L127.848 50.9968L126.357 50.117L126.933 49.1421C127.88 47.5363 129.225 47.0928 130.773 48.0067C132.321 48.9206 132.583 50.312 131.635 51.9173C129.773 55.0711 125.94 54.3934 124.967 56.0424C124.925 56.114 124.882 56.1856 124.854 56.2659L127.836 58.0256L126.989 59.4592L122.432 56.7683L123.159 55.5354C124.902 52.5823 128.314 53.9397 130.024 51.0441C130.557 50.1408 130.386 49.7111 129.884 49.4149Z" fill="#222222"/>
<path d="M140.398 55.2683L141.317 56.0882L133.561 64.7893L132.193 63.5706L138.111 56.933L137.054 55.9906L137.919 55.0214C138.975 55.9632 139.665 55.664 140.398 55.2683Z" fill="#222222"/>
<path d="M49.6399 131.38C49.6399 132.193 49.4533 132.94 49.0799 133.62C48.7066 134.287 48.1333 134.827 47.3599 135.24C46.5866 135.653 45.6266 135.86 44.4799 135.86H42.3599V140.9H38.9399V126.86H44.4799C45.5999 126.86 46.5466 127.053 47.3199 127.44C48.0933 127.827 48.6733 128.36 49.0599 129.04C49.4466 129.72 49.6399 130.5 49.6399 131.38ZM44.2199 133.14C44.8733 133.14 45.3599 132.987 45.6799 132.68C45.9999 132.373 46.1599 131.94 46.1599 131.38C46.1599 130.82 45.9999 130.387 45.6799 130.08C45.3599 129.773 44.8733 129.62 44.2199 129.62H42.3599V133.14H44.2199Z" fill="#063643"/>
<path d="M54.8404 126.86V140.9H51.4204V126.86H54.8404Z" fill="#063643"/>
<path d="M69.8788 140.9H66.4588L60.7388 132.24V140.9H57.3188V126.86H60.7388L66.4588 135.56V126.86H69.8788V140.9Z" fill="#063643"/>
<path d="M77.6179 126.86C79.0979 126.86 80.3912 127.153 81.4979 127.74C82.6046 128.327 83.4579 129.153 84.0579 130.22C84.6712 131.273 84.9779 132.493 84.9779 133.88C84.9779 135.253 84.6712 136.473 84.0579 137.54C83.4579 138.607 82.5979 139.433 81.4779 140.02C80.3712 140.607 79.0846 140.9 77.6179 140.9H72.3579V126.86H77.6179ZM77.3979 137.94C78.6912 137.94 79.6979 137.587 80.4179 136.88C81.1379 136.173 81.4979 135.173 81.4979 133.88C81.4979 132.587 81.1379 131.58 80.4179 130.86C79.6979 130.14 78.6912 129.78 77.3979 129.78H75.7779V137.94H77.3979Z" fill="#063643"/>
<path d="M93.5292 141.04C92.2092 141.04 90.9958 140.733 89.8892 140.12C88.7958 139.507 87.9225 138.653 87.2692 137.56C86.6292 136.453 86.3092 135.213 86.3092 133.84C86.3092 132.467 86.6292 131.233 87.2692 130.14C87.9225 129.047 88.7958 128.193 89.8892 127.58C90.9958 126.967 92.2092 126.66 93.5292 126.66C94.8492 126.66 96.0558 126.967 97.1492 127.58C98.2558 128.193 99.1225 129.047 99.7492 130.14C100.389 131.233 100.709 132.467 100.709 133.84C100.709 135.213 100.389 136.453 99.7492 137.56C99.1092 138.653 98.2425 139.507 97.1492 140.12C96.0558 140.733 94.8492 141.04 93.5292 141.04ZM93.5292 137.92C94.6492 137.92 95.5425 137.547 96.2092 136.8C96.8892 136.053 97.2292 135.067 97.2292 133.84C97.2292 132.6 96.8892 131.613 96.2092 130.88C95.5425 130.133 94.6492 129.76 93.5292 129.76C92.3958 129.76 91.4892 130.127 90.8092 130.86C90.1425 131.593 89.8092 132.587 89.8092 133.84C89.8092 135.08 90.1425 136.073 90.8092 136.82C91.4892 137.553 92.3958 137.92 93.5292 137.92Z" fill="#063643"/>
<path d="M109.772 140.9L106.852 135.6H106.032V140.9H102.612V126.86H108.352C109.458 126.86 110.398 127.053 111.172 127.44C111.958 127.827 112.545 128.36 112.932 129.04C113.318 129.707 113.512 130.453 113.512 131.28C113.512 132.213 113.245 133.047 112.712 133.78C112.192 134.513 111.418 135.033 110.392 135.34L113.632 140.9H109.772ZM106.032 133.18H108.152C108.778 133.18 109.245 133.027 109.552 132.72C109.872 132.413 110.032 131.98 110.032 131.42C110.032 130.887 109.872 130.467 109.552 130.16C109.245 129.853 108.778 129.7 108.152 129.7H106.032V133.18Z" fill="#063643"/>
<path d="M124.399 138.42H119.159L118.319 140.9H114.739L119.819 126.86H123.779L128.859 140.9H125.239L124.399 138.42ZM123.519 135.78L121.779 130.64L120.059 135.78H123.519Z" fill="#063643"/>
<path d="M146.305 126.86V140.9H142.885V132.48L139.745 140.9H136.985L133.825 132.46V140.9H130.405V126.86H134.445L138.385 136.58L142.285 126.86H146.305Z" fill="#063643"/>
<path d="M157.504 138.42H152.264L151.424 140.9H147.844L152.924 126.86H156.884L161.964 140.9H158.344L157.504 138.42ZM156.624 135.78L154.884 130.64L153.164 135.78H156.624Z" fill="#063643"/>
<path d="M88.2399 153.38C88.2399 154.193 88.0533 154.94 87.6799 155.62C87.3066 156.287 86.7333 156.827 85.9599 157.24C85.1866 157.653 84.2266 157.86 83.0799 157.86H80.9599V162.9H77.5399V148.86H83.0799C84.1999 148.86 85.1466 149.053 85.9199 149.44C86.6933 149.827 87.2733 150.36 87.6599 151.04C88.0466 151.72 88.2399 152.5 88.2399 153.38ZM82.8199 155.14C83.4733 155.14 83.9599 154.987 84.2799 154.68C84.5999 154.373 84.7599 153.94 84.7599 153.38C84.7599 152.82 84.5999 152.387 84.2799 152.08C83.9599 151.773 83.4733 151.62 82.8199 151.62H80.9599V155.14H82.8199Z" fill="#063643"/>
<path d="M93.4404 151.6V154.44H98.0204V157.08H93.4404V160.16H98.6204V162.9H90.0204V148.86H98.6204V151.6H93.4404Z" fill="#063643"/>
<path d="M110.941 148.86V151.6H107.221V162.9H103.801V151.6H100.081V148.86H110.941Z" fill="#063643"/>
<path d="M117.737 163.04C116.71 163.04 115.79 162.873 114.977 162.54C114.164 162.207 113.51 161.713 113.017 161.06C112.537 160.407 112.284 159.62 112.257 158.7H115.897C115.95 159.22 116.13 159.62 116.437 159.9C116.744 160.167 117.144 160.3 117.637 160.3C118.144 160.3 118.544 160.187 118.837 159.96C119.13 159.72 119.277 159.393 119.277 158.98C119.277 158.633 119.157 158.347 118.917 158.12C118.69 157.893 118.404 157.707 118.057 157.56C117.724 157.413 117.244 157.247 116.617 157.06C115.71 156.78 114.97 156.5 114.397 156.22C113.824 155.94 113.33 155.527 112.917 154.98C112.504 154.433 112.297 153.72 112.297 152.84C112.297 151.533 112.77 150.513 113.717 149.78C114.664 149.033 115.897 148.66 117.417 148.66C118.964 148.66 120.21 149.033 121.157 149.78C122.104 150.513 122.61 151.54 122.677 152.86H118.977C118.95 152.407 118.784 152.053 118.477 151.8C118.17 151.533 117.777 151.4 117.297 151.4C116.884 151.4 116.55 151.513 116.297 151.74C116.044 151.953 115.917 152.267 115.917 152.68C115.917 153.133 116.13 153.487 116.557 153.74C116.984 153.993 117.65 154.267 118.557 154.56C119.464 154.867 120.197 155.16 120.757 155.44C121.33 155.72 121.824 156.127 122.237 156.66C122.65 157.193 122.857 157.88 122.857 158.72C122.857 159.52 122.65 160.247 122.237 160.9C121.837 161.553 121.25 162.073 120.477 162.46C119.704 162.847 118.79 163.04 117.737 163.04Z" fill="#063643"/>
</svg>
