<svg width="167" height="103" viewBox="0 0 167 103" fill="none" xmlns="http://www.w3.org/2000/svg">
<path fill-rule="evenodd" clip-rule="evenodd" d="M73.3422 2.07652C79.981 -0.692174 87.4196 -0.692174 94.0585 2.07652C94.1672 1.67449 94.3847 1.31839 94.6918 1.01519C95.1715 0.5537 95.747 0.329653 96.4058 0.369292C107.253 0.968997 117.013 7.33671 122.181 17.1782C125.309 23.1307 126.07 30.2299 125.162 36.8678C124.522 41.4887 123.051 46.0831 120.781 50.1238C120.442 50.7236 119.885 51.1126 119.271 51.251C118.574 51.4883 117.781 51.3828 117.154 50.8951C115.108 49.2998 113.176 47.5794 111.372 45.7535C111.468 50.8095 110.957 55.8786 109.856 60.8157C109.844 60.8618 109.831 60.908 109.824 60.9476C108.142 67.0712 102.949 71.402 96.8855 71.9426C88.5964 76.2537 78.8042 76.2537 70.5151 71.9426C64.4518 71.4087 59.2647 67.0712 57.5826 60.9476C57.5697 60.908 57.557 60.8618 57.5442 60.8157C56.4441 55.8786 55.9324 50.8095 56.0347 45.7535C54.2247 47.5794 52.2995 49.2998 50.2464 50.8951C49.6196 51.3828 48.8266 51.4883 48.1295 51.251C47.5153 51.1126 46.9589 50.7236 46.62 50.1238C44.3494 46.0831 42.8783 41.4887 42.2388 36.8678C41.3306 30.2299 42.0981 23.1307 45.2193 17.1782C50.3872 7.33671 60.1537 0.968997 70.9949 0.369292C71.6536 0.329653 72.2293 0.5537 72.709 1.01519C73.0224 1.31839 73.2335 1.67449 73.3422 2.07652ZM98.6635 5.70862C98.6635 5.74143 98.67 5.77437 98.67 5.80745C99.4439 21.1991 106.428 35.5824 117.934 45.4503C121.529 37.5073 122.156 27.145 118.114 19.4458C114.11 11.8258 106.87 6.65116 98.6508 5.38547C98.6508 5.49769 98.6572 5.60309 98.6635 5.70862ZM94.1288 7.33671C87.5795 3.90241 79.8212 3.90242 73.2719 7.3434C72.4211 19.2876 68.1294 30.6123 61.0683 39.9263C60.2689 46.5115 60.6015 53.222 62.0405 59.6886C63.1854 63.7952 66.6264 66.7087 70.6686 67.1702C70.9884 67.1174 71.3209 67.1372 71.6472 67.2295C71.6856 67.2295 71.724 67.2295 71.7624 67.2295C75.6319 67.2428 79.188 65.0146 80.9276 61.442C81.0428 61.2045 81.1899 60.9937 81.3691 60.8157C81.3435 59.3655 81.3307 57.9154 81.3435 56.4717C81.0748 56.63 80.8255 56.8145 80.5951 57.032C79.6357 57.8956 78.171 57.8033 77.3269 56.8211C76.4888 55.8324 76.5785 54.3228 77.5315 53.4528C79.2264 51.9102 81.3946 51.0532 83.6523 51.0137C83.678 51.0137 83.7035 51.0137 83.7227 51.0137C83.7356 51.0137 83.7419 51.0137 83.7483 51.0137C86.0061 51.0532 88.1743 51.9102 89.8691 53.4528C90.8221 54.3228 90.9181 55.8324 90.0738 56.8211C89.2296 57.8033 87.765 57.8956 86.8055 57.032C86.5497 56.7947 86.2684 56.5838 85.9677 56.4124C85.9613 57.8692 85.9677 59.326 85.9932 60.7762C86.1851 60.9673 86.3514 61.185 86.4793 61.442C88.2126 65.0146 91.7688 67.2428 95.6383 67.2295C95.6767 67.2295 95.7151 67.2295 95.7599 67.2295C96.0797 67.1372 96.4122 67.1174 96.7321 67.1702C100.774 66.7087 104.215 63.7952 105.36 59.6886C106.799 53.222 107.132 46.5115 106.332 39.9263C99.2712 30.6123 94.9795 19.2876 94.1288 7.33671ZM79.1817 69.9783C82.1685 70.5517 85.2322 70.5517 88.2191 69.9783C86.473 68.9433 84.9251 67.5459 83.7035 65.8519C82.4755 67.5459 80.9276 68.9433 79.1817 69.9783ZM68.7563 5.38547C60.5312 6.65116 53.2909 11.8258 49.2871 19.4458C45.2448 27.145 45.8717 37.5073 49.4662 45.4503C61.0811 35.49 68.0847 20.9421 68.7563 5.38547ZM86.8184 36.2482C88.5836 34.0794 91.142 32.7678 93.8794 32.6161C96.6104 32.4645 99.3096 33.4929 101.286 35.4374C102.201 36.347 102.239 37.8631 101.356 38.8124C100.474 39.7616 99.0089 39.7946 98.088 38.885C97.0326 37.8434 95.5872 37.2962 94.1288 37.3754C92.6641 37.4544 91.3019 38.1598 90.3552 39.3134C89.5366 40.3219 88.072 40.4537 87.0934 39.6034C86.1213 38.7596 85.9932 37.2502 86.8184 36.2482ZM65.9484 36.2482C67.7137 34.0794 70.2721 32.7678 73.0096 32.6161C75.7406 32.4645 78.4398 33.4929 80.416 35.4374C81.337 36.347 81.3691 37.8631 80.4864 38.8124C79.6039 39.7616 78.1391 39.7946 77.2182 38.885C76.1628 37.8434 74.7174 37.2962 73.259 37.3754C71.8008 37.4544 70.432 38.1598 69.4854 39.3134C68.6668 40.3219 67.2021 40.4537 66.2298 39.6034C65.2512 38.7596 65.1298 37.2502 65.9484 36.2482Z" fill="#0F637A"/>
<path d="M9.96455 93.5714C9.96455 94.3288 9.79071 95.0241 9.44304 95.6574C9.09536 96.2782 8.56144 96.7811 7.84126 97.166C7.12108 97.551 6.22707 97.7434 5.15921 97.7434H3.18493V102.437H0V89.362H5.15921C6.20223 89.362 7.08383 89.5421 7.80401 89.9022C8.52419 90.2623 9.06432 90.7589 9.42441 91.3922C9.7845 92.0255 9.96455 92.7518 9.96455 93.5714ZM4.91708 95.2104C5.52551 95.2104 5.97873 95.0676 6.27673 94.782C6.57474 94.4964 6.72374 94.0929 6.72374 93.5714C6.72374 93.0498 6.57474 92.6463 6.27673 92.3607C5.97873 92.0751 5.52551 91.9323 4.91708 91.9323H3.18493V95.2104H4.91708Z" fill="#F8F8FF"/>
<path d="M15.1801 89.362V102.437H11.9951V89.362H15.1801Z" fill="#F8F8FF"/>
<path d="M29.5574 102.437H26.3724L21.0456 94.3722V102.437H17.8607V89.362H21.0456L26.3724 97.464V89.362H29.5574V102.437Z" fill="#F8F8FF"/>
<path d="M37.137 89.362C38.5153 89.362 39.7197 89.6352 40.7503 90.1815C41.7809 90.7279 42.5756 91.4977 43.1343 92.4911C43.7055 93.472 43.9911 94.6082 43.9911 95.8995C43.9911 97.1785 43.7055 98.3146 43.1343 99.308C42.5756 100.301 41.7747 101.071 40.7317 101.617C39.7011 102.164 38.5029 102.437 37.137 102.437H32.2385V89.362H37.137ZM36.9321 99.6805C38.1366 99.6805 39.074 99.3514 39.7445 98.6933C40.4151 98.0352 40.7503 97.104 40.7503 95.8995C40.7503 94.6951 40.4151 93.7576 39.7445 93.0871C39.074 92.4166 38.1366 92.0813 36.9321 92.0813H35.4235V99.6805H36.9321Z" fill="#F8F8FF"/>
<path d="M52.3271 102.567C51.0978 102.567 49.9679 102.282 48.9373 101.711C47.9191 101.139 47.1058 100.345 46.4974 99.3266C45.9014 98.296 45.6034 97.1412 45.6034 95.8623C45.6034 94.5833 45.9014 93.4348 46.4974 92.4166C47.1058 91.3984 47.9191 90.6037 48.9373 90.0325C49.9679 89.4614 51.0978 89.1758 52.3271 89.1758C53.5564 89.1758 54.6801 89.4614 55.6983 90.0325C56.7289 90.6037 57.536 91.3984 58.1196 92.4166C58.7156 93.4348 59.0136 94.5833 59.0136 95.8623C59.0136 97.1412 58.7156 98.296 58.1196 99.3266C57.5236 100.345 56.7165 101.139 55.6983 101.711C54.6801 102.282 53.5564 102.567 52.3271 102.567ZM52.3271 99.6618C53.3701 99.6618 54.2021 99.3142 54.8229 98.6188C55.4562 97.9235 55.7728 97.0046 55.7728 95.8623C55.7728 94.7075 55.4562 93.7886 54.8229 93.1057C54.2021 92.4104 53.3701 92.0627 52.3271 92.0627C51.2717 92.0627 50.4273 92.4042 49.7941 93.0871C49.1732 93.77 48.8628 94.6951 48.8628 95.8623C48.8628 97.017 49.1732 97.9421 49.7941 98.6374C50.4273 99.3204 51.2717 99.6618 52.3271 99.6618Z" fill="#F8F8FF"/>
<path d="M67.8258 102.437L65.1066 97.5013H64.3429V102.437H61.158V89.362H66.5034C67.534 89.362 68.4094 89.5421 69.1296 89.9022C69.8622 90.2623 70.4086 90.7589 70.7686 91.3922C71.1287 92.013 71.3088 92.7084 71.3088 93.4782C71.3088 94.3474 71.0604 95.1235 70.5638 95.8064C70.0795 96.4893 69.3593 96.9736 68.4032 97.2592L71.4205 102.437H67.8258ZM64.3429 95.2476H66.3172C66.9008 95.2476 67.3354 95.1048 67.621 94.8193C67.919 94.5337 68.068 94.1301 68.068 93.6086C68.068 93.1119 67.919 92.7208 67.621 92.4352C67.3354 92.1496 66.9008 92.0068 66.3172 92.0068H64.3429V95.2476Z" fill="#F8F8FF"/>
<path d="M81.8199 100.127H76.94L76.1578 102.437H72.8238L77.5547 89.362H81.2425L85.9733 102.437H82.6021L81.8199 100.127ZM81.0003 97.6689L79.3799 92.8822L77.7782 97.6689H81.0003Z" fill="#F8F8FF"/>
<path d="M102.593 89.362V102.437H99.4078V94.5957L96.4837 102.437H93.9134L90.9706 94.5771V102.437H87.7856V89.362H91.548L95.2171 98.4139L98.8491 89.362H102.593Z" fill="#F8F8FF"/>
<path d="M113.395 100.127H108.515L107.733 102.437H104.399L109.13 89.362H112.817L117.548 102.437H114.177L113.395 100.127ZM112.575 97.6689L110.955 92.8822L109.353 97.6689H112.575Z" fill="#F8F8FF"/>
<path d="M133.645 93.5714C133.645 94.3288 133.471 95.0241 133.123 95.6574C132.775 96.2782 132.242 96.7811 131.521 97.166C130.801 97.551 129.907 97.7434 128.839 97.7434H126.865V102.437H123.68V89.362H128.839C129.882 89.362 130.764 89.5421 131.484 89.9022C132.204 90.2623 132.744 90.7589 133.105 91.3922C133.465 92.0255 133.645 92.7518 133.645 93.5714ZM128.597 95.2104C129.206 95.2104 129.659 95.0676 129.957 94.782C130.255 94.4964 130.404 94.0929 130.404 93.5714C130.404 93.0498 130.255 92.6463 129.957 92.3607C129.659 92.0751 129.206 91.9323 128.597 91.9323H126.865V95.2104H128.597Z" fill="#F8F8FF"/>
<path d="M138.86 91.9137V94.5585H143.125V97.017H138.86V99.8853H143.684V102.437H135.675V89.362H143.684V91.9137H138.86Z" fill="#F8F8FF"/>
<path d="M155.53 89.362V91.9137H152.066V102.437H148.881V91.9137H145.417V89.362H155.53Z" fill="#F8F8FF"/>
<path d="M162.232 102.567C161.276 102.567 160.419 102.412 159.662 102.102C158.904 101.791 158.296 101.332 157.836 100.723C157.389 100.115 157.153 99.3825 157.129 98.5257H160.518C160.568 99.0099 160.736 99.3825 161.021 99.6432C161.307 99.8915 161.679 100.016 162.139 100.016C162.611 100.016 162.983 99.9102 163.256 99.6991C163.529 99.4756 163.666 99.1714 163.666 98.7864C163.666 98.4636 163.554 98.1966 163.331 97.9856C163.12 97.7745 162.853 97.6006 162.53 97.464C162.219 97.3275 161.772 97.1722 161.189 96.9984C160.345 96.7377 159.655 96.4769 159.121 96.2161C158.588 95.9554 158.128 95.5705 157.743 95.0614C157.358 94.5523 157.166 93.888 157.166 93.0685C157.166 91.8516 157.607 90.9017 158.488 90.2188C159.37 89.5235 160.518 89.1758 161.934 89.1758C163.374 89.1758 164.535 89.5235 165.417 90.2188C166.298 90.9017 166.77 91.8578 166.832 93.0871H163.387C163.362 92.6649 163.207 92.3359 162.921 92.1C162.635 91.8516 162.269 91.7274 161.822 91.7274C161.437 91.7274 161.127 91.833 160.891 92.0441C160.655 92.2427 160.537 92.5345 160.537 92.9195C160.537 93.3416 160.736 93.6707 161.133 93.9066C161.53 94.1425 162.151 94.3971 162.996 94.6702C163.84 94.9558 164.523 95.229 165.044 95.4898C165.578 95.7505 166.038 96.1292 166.423 96.6259C166.808 97.1226 167 97.762 167 98.5443C167 99.2893 166.808 99.966 166.423 100.574C166.05 101.183 165.504 101.667 164.784 102.027C164.063 102.387 163.213 102.567 162.232 102.567Z" fill="#F8F8FF"/>
</svg>
