<svg width="87" height="14" viewBox="0 0 87 14" fill="none" xmlns="http://www.w3.org/2000/svg">
<path d="M7.06061 1.4969C7.17284 1.26601 7.49709 1.26601 7.60932 1.4969L9.06209 4.48583C9.10665 4.57752 9.1928 4.64107 9.29245 4.65577L12.5409 5.13507C12.7919 5.17209 12.8921 5.48522 12.7105 5.66495L10.3599 7.99151C10.2878 8.06288 10.2549 8.1657 10.2719 8.26648L10.8268 11.5516C10.8697 11.8054 10.6073 11.9989 10.3829 11.8791L7.47733 10.3281C7.3882 10.2805 7.28172 10.2805 7.19259 10.3281L4.28705 11.8791C4.0626 11.9989 3.80027 11.8054 3.84314 11.5516L4.39805 8.26648C4.41507 8.1657 4.38217 8.06288 4.31006 7.99151L1.95943 5.66495C1.77784 5.48522 1.87804 5.17209 2.12899 5.13507L5.37748 4.65577C5.47713 4.64107 5.56327 4.57752 5.60784 4.48583L7.06061 1.4969Z" fill="#FFD700" stroke="#F1CB00" stroke-width="1.32397" stroke-linejoin="round"/>
<path d="M25.3151 1.4969C25.4274 1.26601 25.7516 1.26601 25.8638 1.4969L27.3166 4.48583C27.3612 4.57752 27.4473 4.64107 27.547 4.65577L30.7955 5.13507C31.0464 5.17209 31.1466 5.48522 30.965 5.66495L28.6144 7.99151C28.5423 8.06288 28.5094 8.1657 28.5264 8.26648L29.0813 11.5516C29.1242 11.8054 28.8618 11.9989 28.6374 11.8791L25.7318 10.3281C25.6427 10.2805 25.5362 10.2805 25.4471 10.3281L22.5416 11.8791C22.3171 11.9989 22.0548 11.8054 22.0977 11.5516L22.6526 8.26648C22.6696 8.1657 22.6367 8.06288 22.5646 7.99151L20.2139 5.66495C20.0324 5.48522 20.1326 5.17209 20.3835 5.13507L23.632 4.65577C23.7316 4.64107 23.8178 4.57752 23.8624 4.48583L25.3151 1.4969Z" fill="#FFD700" stroke="#F1CB00" stroke-width="1.32397" stroke-linejoin="round"/>
<path d="M43.569 1.4969C43.6813 1.26601 44.0055 1.26601 44.1177 1.4969L45.5705 4.48583C45.6151 4.57752 45.7012 4.64107 45.8009 4.65577L49.0494 5.13507C49.3003 5.17209 49.4005 5.48522 49.2189 5.66495L46.8683 7.99151C46.7962 8.06288 46.7633 8.1657 46.7803 8.26648L47.3352 11.5516C47.3781 11.8054 47.1157 11.9989 46.8913 11.8791L43.9858 10.3281C43.8966 10.2805 43.7901 10.2805 43.701 10.3281L40.7955 11.8791C40.571 11.9989 40.3087 11.8054 40.3516 11.5516L40.9065 8.26648C40.9235 8.1657 40.8906 8.06288 40.8185 7.99151L38.4678 5.66495C38.2863 5.48522 38.3865 5.17209 38.6374 5.13507L41.8859 4.65577C41.9856 4.64107 42.0717 4.57752 42.1163 4.48583L43.569 1.4969Z" fill="#FFD700" stroke="#F1CB00" stroke-width="1.32397" stroke-linejoin="round"/>
<path d="M61.824 1.4969C61.9363 1.26601 62.2605 1.26601 62.3727 1.4969L63.8255 4.48583C63.8701 4.57752 63.9562 4.64107 64.0559 4.65577L67.3044 5.13507C67.5553 5.17209 67.6555 5.48522 67.4739 5.66495L65.1233 7.99151C65.0512 8.06288 65.0183 8.1657 65.0353 8.26648L65.5902 11.5516C65.6331 11.8054 65.3708 11.9989 65.1463 11.8791L62.2408 10.3281C62.1516 10.2805 62.0452 10.2805 61.956 10.3281L59.0505 11.8791C58.826 11.9989 58.5637 11.8054 58.6066 11.5516L59.1615 8.26648C59.1785 8.1657 59.1456 8.06288 59.0735 7.99151L56.7229 5.66495C56.5413 5.48522 56.6415 5.17209 56.8924 5.13507L60.1409 4.65577C60.2406 4.64107 60.3267 4.57752 60.3713 4.48583L61.824 1.4969Z" fill="#FFD700" stroke="#F1CB00" stroke-width="1.32397" stroke-linejoin="round"/>
<path d="M80.079 1.4969C80.1913 1.26601 80.5155 1.26601 80.6277 1.4969L82.0805 4.48583C82.1251 4.57752 82.2112 4.64107 82.3109 4.65577L85.5594 5.13507C85.8103 5.17209 85.9105 5.48522 85.7289 5.66495L83.3783 7.99151C83.3062 8.06288 83.2733 8.1657 83.2903 8.26648L83.8452 11.5516C83.8881 11.8054 83.6258 11.9989 83.4013 11.8791L80.4958 10.3281C80.4066 10.2805 80.3002 10.2805 80.211 10.3281L77.3055 11.8791C77.081 11.9989 76.8187 11.8054 76.8616 11.5516L77.4165 8.26648C77.4335 8.1657 77.4006 8.06288 77.3285 7.99151L74.9779 5.66495C74.7963 5.48522 74.8965 5.17209 75.1474 5.13507L78.3959 4.65577C78.4956 4.64107 78.5817 4.57752 78.6263 4.48583L80.079 1.4969Z" fill="#FFD700" stroke="#F1CB00" stroke-width="1.32397" stroke-linejoin="round"/>
</svg>
